<svg width="32" height="33" viewBox="0 0 32 33" fill="none" xmlns="http://www.w3.org/2000/svg">
<rect y="0.283081" width="32" height="32" rx="16" fill="#F9F9F9"/>
<path d="M22.7405 20.3173C22.2941 19.9193 21.9033 19.4631 21.5785 18.9608C21.2237 18.2677 21.0112 17.5106 20.9535 16.7341V14.4471C20.9566 13.2275 20.5142 12.0488 19.7095 11.1324C18.9048 10.216 17.7931 9.62496 16.5833 9.4704V8.8732C16.5833 8.70929 16.5182 8.55209 16.4023 8.43618C16.2864 8.32028 16.1292 8.25516 15.9653 8.25516C15.8014 8.25516 15.6442 8.32028 15.5283 8.43618C15.4124 8.55209 15.3472 8.70929 15.3472 8.8732V9.47966C14.1483 9.64536 13.0501 10.2399 12.2559 11.1533C11.4618 12.0666 11.0255 13.2368 11.0279 14.4471V16.7341C10.9703 17.5106 10.7578 18.2677 10.403 18.9608C10.0839 19.4619 9.69937 19.9181 9.25948 20.3173C9.2101 20.3607 9.17052 20.4141 9.14338 20.4739C9.11624 20.5338 9.10216 20.5988 9.10208 20.6645V21.2941C9.10208 21.4169 9.15086 21.5346 9.23768 21.6214C9.3245 21.7083 9.44225 21.757 9.56503 21.757H22.435C22.5578 21.757 22.6755 21.7083 22.7623 21.6214C22.8492 21.5346 22.8979 21.4169 22.8979 21.2941V20.6645C22.8978 20.5988 22.8838 20.5338 22.8566 20.4739C22.8295 20.4141 22.7899 20.3607 22.7405 20.3173ZM10.065 20.8311C10.4956 20.415 10.8749 19.9487 11.1946 19.4423C11.6417 18.6053 11.9023 17.6814 11.9585 16.7341V14.4471C11.9401 13.9045 12.0311 13.3638 12.2261 12.8572C12.421 12.3505 12.716 11.8883 13.0933 11.498C13.4706 11.1077 13.9226 10.7973 14.4224 10.5853C14.9221 10.3733 15.4595 10.2641 16.0023 10.2641C16.5452 10.2641 17.0825 10.3733 17.5823 10.5853C18.082 10.7973 18.5341 11.1077 18.9114 11.498C19.2887 11.8883 19.5836 12.3505 19.7786 12.8572C19.9735 13.3638 20.0645 13.9045 20.0462 14.4471V16.7341C20.1023 17.6814 20.3629 18.6053 20.81 19.4423C21.1298 19.9487 21.509 20.415 21.9396 20.8311H10.065Z" fill="#444444"/>
<path d="M16.0375 24.3108C16.51 24.2999 16.9634 24.1223 17.3175 23.8094C17.6716 23.4964 17.9036 23.0683 17.9725 22.6008H14.0275C14.0984 23.081 14.3413 23.5192 14.711 23.8337C15.0807 24.1483 15.5521 24.3178 16.0375 24.3108Z" fill="#444444"/>
</svg>
