<svg width="16" height="17" viewBox="0 0 16 17" fill="none" xmlns="http://www.w3.org/2000/svg">
<path d="M8 8.44975C7.55798 8.44975 7.13405 8.27416 6.82149 7.9616C6.50893 7.64903 6.33334 7.22511 6.33334 6.78308C6.33334 6.34106 6.50893 5.91713 6.82149 5.60457C7.13405 5.29201 7.55798 5.11642 8 5.11642C8.44203 5.11642 8.86595 5.29201 9.17851 5.60457C9.49107 5.91713 9.66667 6.34106 9.66667 6.78308C9.66667 7.00195 9.62356 7.21868 9.5398 7.42089C9.45604 7.6231 9.33328 7.80683 9.17851 7.9616C9.02375 8.11636 8.84002 8.23913 8.63781 8.32288C8.4356 8.40664 8.21887 8.44975 8 8.44975ZM8 2.11642C6.76233 2.11642 5.57534 2.60808 4.70017 3.48325C3.825 4.35842 3.33334 5.54541 3.33334 6.78308C3.33334 10.2831 8 15.4498 8 15.4498C8 15.4498 12.6667 10.2831 12.6667 6.78308C12.6667 5.54541 12.175 4.35842 11.2998 3.48325C10.4247 2.60808 9.23768 2.11642 8 2.11642Z" fill="#646464"/>
</svg>
