<svg width="32" height="33" viewBox="0 0 32 33" fill="none" xmlns="http://www.w3.org/2000/svg">
<path d="M24.6666 19.18L24.6799 19.1653M9.99992 19.18L10.0133 19.1653M5.33325 24.5V13.8333C5.33325 13.1261 5.6142 12.4478 6.1143 11.9477C6.6144 11.4476 7.29267 11.1667 7.99992 11.1667H26.6666C27.3738 11.1667 28.0521 11.4476 28.5522 11.9477C29.0523 12.4478 29.3333 13.1261 29.3333 13.8333V24.5C29.3333 25.2072 29.0523 25.8855 28.5522 26.3856C28.0521 26.8857 27.3738 27.1667 26.6666 27.1667H7.99992C7.29267 27.1667 6.6144 26.8857 6.1143 26.3856C5.6142 25.8855 5.33325 25.2072 5.33325 24.5Z" stroke="#696969" stroke-width="2" stroke-linecap="round" stroke-linejoin="round"/>
<path d="M5.33325 21.8333H3.99992C3.29267 21.8333 2.6144 21.5524 2.1143 21.0523C1.6142 20.5522 1.33325 19.8739 1.33325 19.1667V8.5C1.33325 7.79276 1.6142 7.11448 2.1143 6.61438C2.6144 6.11429 3.29267 5.83334 3.99992 5.83334H22.6666C23.3738 5.83334 24.0521 6.11429 24.5522 6.61438C25.0523 7.11448 25.3333 7.79276 25.3333 8.5V11.1667M17.3333 21.8333C16.626 21.8333 15.9477 21.5524 15.4476 21.0523C14.9475 20.5522 14.6666 19.8739 14.6666 19.1667C14.6666 18.4594 14.9475 17.7811 15.4476 17.2811C15.9477 16.781 16.626 16.5 17.3333 16.5C18.0405 16.5 18.7188 16.781 19.2189 17.2811C19.719 17.7811 19.9999 18.4594 19.9999 19.1667C19.9999 19.8739 19.719 20.5522 19.2189 21.0523C18.7188 21.5524 18.0405 21.8333 17.3333 21.8333Z" stroke="#696969" stroke-width="2" stroke-linecap="round" stroke-linejoin="round"/>
</svg>
