<svg width="15" height="16" viewBox="0 0 15 16" fill="none" xmlns="http://www.w3.org/2000/svg">
<path d="M11.2632 11.4737C11.6261 11.4737 11.9741 11.6068 12.2308 11.8437C12.4874 12.0805 12.6316 12.4018 12.6316 12.7368C12.6316 13.0719 12.4874 13.3931 12.2308 13.63C11.9741 13.8669 11.6261 14 11.2632 14C10.9002 14 10.5522 13.8669 10.2955 13.63C10.0389 13.3931 9.89474 13.0719 9.89474 12.7368C9.89474 12.4018 10.0389 12.0805 10.2955 11.8437C10.5522 11.6068 10.9002 11.4737 11.2632 11.4737ZM11.2632 12.1053C11.0817 12.1053 10.9077 12.1718 10.7793 12.2902C10.651 12.4087 10.5789 12.5693 10.5789 12.7368C10.5789 12.9043 10.651 13.065 10.7793 13.1834C10.9077 13.3019 11.0817 13.3684 11.2632 13.3684C11.4446 13.3684 11.6187 13.3019 11.747 13.1834C11.8753 13.065 11.9474 12.9043 11.9474 12.7368C11.9474 12.5693 11.8753 12.4087 11.747 12.2902C11.6187 12.1718 11.4446 12.1053 11.2632 12.1053ZM5.10526 11.4737C5.46819 11.4737 5.81625 11.6068 6.07288 11.8437C6.32951 12.0805 6.47368 12.4018 6.47368 12.7368C6.47368 13.0719 6.32951 13.3931 6.07288 13.63C5.81625 13.8669 5.46819 14 5.10526 14C4.74234 14 4.39427 13.8669 4.13764 13.63C3.88101 13.3931 3.73684 13.0719 3.73684 12.7368C3.73684 12.4018 3.88101 12.0805 4.13764 11.8437C4.39427 11.6068 4.74234 11.4737 5.10526 11.4737ZM5.10526 12.1053C4.9238 12.1053 4.74977 12.1718 4.62145 12.2902C4.49314 12.4087 4.42105 12.5693 4.42105 12.7368C4.42105 12.9043 4.49314 13.065 4.62145 13.1834C4.74977 13.3019 4.9238 13.3684 5.10526 13.3684C5.28673 13.3684 5.46076 13.3019 5.58907 13.1834C5.71739 13.065 5.78947 12.9043 5.78947 12.7368C5.78947 12.5693 5.71739 12.4087 5.58907 12.2902C5.46076 12.1718 5.28673 12.1053 5.10526 12.1053ZM12.6316 3.89474H3.23737L4.98211 7.68421H10.5789C10.8047 7.68421 11.0032 7.58316 11.1263 7.43158L13.1789 4.90526C13.2679 4.79789 13.3158 4.66526 13.3158 4.52632C13.3158 4.35881 13.2437 4.19817 13.1154 4.07972C12.9871 3.96128 12.813 3.89474 12.6316 3.89474ZM10.5789 8.31579H5.01632L4.48947 9.30105L4.42105 9.57895C4.42105 9.74645 4.49314 9.9071 4.62145 10.0255C4.74977 10.144 4.9238 10.2105 5.10526 10.2105H12.6316V10.8421H5.10526C4.74234 10.8421 4.39427 10.709 4.13764 10.4721C3.88101 10.2352 3.73684 9.91396 3.73684 9.57895C3.73664 9.36465 3.7955 9.15383 3.90789 8.96632L4.40053 8.0379L1.91684 2.63158H1V2H2.36842L2.95 3.26316H12.6316C12.9945 3.26316 13.3426 3.39624 13.5992 3.63313C13.8558 3.87002 14 4.19131 14 4.52632C14 4.84211 13.8837 5.10737 13.6921 5.32211L11.7011 7.77895C11.4547 8.10105 11.0442 8.31579 10.5789 8.31579Z" fill="white"/>
</svg>
