<svg width="17" height="17" viewBox="0 0 17 17" fill="none" xmlns="http://www.w3.org/2000/svg">
<g clip-path="url(#clip0_98_709)">
<path fill-rule="evenodd" clip-rule="evenodd" d="M8.75 16.75C9.83341 16.75 10.9062 16.5366 11.9071 16.122C12.9081 15.7074 13.8175 15.0997 14.5836 14.3336C15.3497 13.5675 15.9574 12.6581 16.372 11.6571C16.7866 10.6562 17 9.58341 17 8.5C17 7.41659 16.7866 6.3438 16.372 5.34286C15.9574 4.34193 15.3497 3.43245 14.5836 2.66637C13.8175 1.90029 12.9081 1.2926 11.9071 0.877994C10.9062 0.463392 9.83341 0.25 8.75 0.25C6.56196 0.25 4.46354 1.11919 2.91637 2.66637C1.36919 4.21354 0.5 6.31196 0.5 8.5C0.5 10.688 1.36919 12.7865 2.91637 14.3336C4.46354 15.8808 6.56196 16.75 8.75 16.75ZM8.53733 11.8367L13.1207 6.33667L11.7127 5.16333L7.771 9.89242L5.73142 7.85192L4.43525 9.14808L7.18525 11.8981L7.89475 12.6076L8.53733 11.8367Z" fill="#8DCD69"/>
</g>
<defs>
<clipPath id="clip0_98_709">
<rect width="16.5" height="16.5" fill="white" transform="translate(0.5 0.25)"/>
</clipPath>
</defs>
</svg>
