<svg width="16" height="17" viewBox="0 0 16 17" fill="none" xmlns="http://www.w3.org/2000/svg">
<rect y="0.5" width="16" height="16" rx="8" fill="#CD6969"/>
<path d="M7.99999 9.13879L5.76425 11.3745C5.6806 11.4582 5.57414 11.5 5.44486 11.5C5.31558 11.5 5.20912 11.4582 5.12547 11.3745C5.04182 11.2909 4.99999 11.1844 4.99999 11.0551C4.99999 10.9259 5.04182 10.8194 5.12547 10.7357L7.36121 8.5L5.12547 6.26426C5.04182 6.18061 4.99999 6.07414 4.99999 5.94487C4.99999 5.81559 5.04182 5.70913 5.12547 5.62548C5.20912 5.54182 5.31558 5.5 5.44486 5.5C5.57414 5.5 5.6806 5.54182 5.76425 5.62548L7.99999 7.86122L10.2357 5.62548C10.3194 5.54182 10.4259 5.5 10.5551 5.5C10.6844 5.5 10.7909 5.54182 10.8745 5.62548C10.9582 5.70913 11 5.81559 11 5.94487C11 6.07414 10.9582 6.18061 10.8745 6.26426L8.63878 8.5L10.8745 10.7357C10.9582 10.8194 11 10.9259 11 11.0551C11 11.1844 10.9582 11.2909 10.8745 11.3745C10.7909 11.4582 10.6844 11.5 10.5551 11.5C10.4259 11.5 10.3194 11.4582 10.2357 11.3745L7.99999 9.13879Z" fill="white"/>
</svg>
