<svg width="24" height="25" viewBox="0 0 24 25" fill="none" xmlns="http://www.w3.org/2000/svg">
<rect x="0.5" y="1.28308" width="23" height="23" rx="11.5" stroke="#E86868"/>
<path d="M17 13.6147H12.8333V17.7814C12.8333 18.0024 12.7455 18.2144 12.5892 18.3706C12.433 18.5269 12.221 18.6147 12 18.6147C11.779 18.6147 11.567 18.5269 11.4107 18.3706C11.2545 18.2144 11.1667 18.0024 11.1667 17.7814V13.6147H6.99999C6.77898 13.6147 6.56701 13.5269 6.41073 13.3706C6.25445 13.2144 6.16666 13.0024 6.16666 12.7814C6.16666 12.5604 6.25445 12.3484 6.41073 12.1921C6.56701 12.0359 6.77898 11.9481 6.99999 11.9481H11.1667V7.78139C11.1667 7.56038 11.2545 7.34842 11.4107 7.19214C11.567 7.03586 11.779 6.94806 12 6.94806C12.221 6.94806 12.433 7.03586 12.5892 7.19214C12.7455 7.34842 12.8333 7.56038 12.8333 7.78139V11.9481H17C17.221 11.9481 17.433 12.0359 17.5892 12.1921C17.7455 12.3484 17.8333 12.5604 17.8333 12.7814C17.8333 13.0024 17.7455 13.2144 17.5892 13.3706C17.433 13.5269 17.221 13.6147 17 13.6147Z" fill="#E86868"/>
</svg>
