<svg width="42" height="42" viewBox="0 0 42 42" fill="none" xmlns="http://www.w3.org/2000/svg">
<rect width="42" height="42" rx="21" fill="#F1F1F1"/>
<path d="M14.1342 21.6932L24.8059 31.8613C24.984 32.031 25.2205 32.1257 25.4665 32.1257C25.7125 32.1257 25.9491 32.031 26.1272 31.8613L26.1387 31.8498C26.2253 31.7675 26.2943 31.6685 26.3414 31.5587C26.3885 31.4489 26.4128 31.3307 26.4128 31.2112C26.4128 31.0917 26.3885 30.9735 26.3414 30.8637C26.2943 30.7539 26.2253 30.6549 26.1387 30.5726L16.0893 20.9981L26.1387 11.4274C26.2253 11.3451 26.2943 11.2461 26.3414 11.1363C26.3885 11.0265 26.4128 10.9083 26.4128 10.7888C26.4128 10.6693 26.3885 10.5511 26.3414 10.4413C26.2943 10.3315 26.2253 10.2325 26.1387 10.1502L26.1272 10.1387C25.9491 9.96893 25.7125 9.87423 25.4665 9.87423C25.2205 9.87423 24.984 9.96893 24.8059 10.1387L14.1342 20.3068C14.0403 20.3962 13.9656 20.5038 13.9145 20.6229C13.8635 20.7421 13.8372 20.8704 13.8372 21C13.8372 21.1296 13.8635 21.2579 13.9145 21.3771C13.9656 21.4962 14.0403 21.6038 14.1342 21.6932Z" fill="#444444"/>
</svg>
