<svg width="32" height="33" viewBox="0 0 32 33" fill="none" xmlns="http://www.w3.org/2000/svg">
<path d="M20.6 22.5267L16.5867 18.5133C16.44 18.3667 16.2667 18.34 16.1734 18.34C16.08 18.34 15.9067 18.3667 15.76 18.5133L11.7334 22.54C11.28 22.9933 10.5734 23.7267 8.21338 23.7267L13.16 28.66C13.91 29.4091 14.9267 29.8298 15.9867 29.8298C17.0467 29.8298 18.0634 29.4091 18.8134 28.66L23.7734 23.7133C22.56 23.7133 21.5467 23.4733 20.6 22.5267ZM11.7334 10.46L15.76 14.4867C15.8667 14.5933 16.0267 14.66 16.1734 14.66C16.32 14.66 16.48 14.5933 16.5867 14.4867L20.5734 10.5C21.52 9.51333 22.6 9.28666 23.8134 9.28666L18.8534 4.34C18.1034 3.59093 17.0867 3.17018 16.0267 3.17018C14.9667 3.17018 13.95 3.59093 13.2 4.34L8.25338 9.27333C10.6 9.27333 11.32 10.0467 11.7334 10.46Z" fill="#32BCAD"/>
<path d="M28.1466 13.6333L25.1466 10.62H23.4666C22.7466 10.62 22.0266 10.9133 21.5333 11.4333L17.5333 15.4333C17.16 15.8067 16.6666 15.9933 16.1733 15.9933C15.6653 15.9862 15.1791 15.786 14.8133 15.4333L10.7866 11.3933C10.28 10.8867 9.58665 10.5933 8.85331 10.5933H6.89331L3.83998 13.66C3.09091 14.41 2.67017 15.4267 2.67017 16.4867C2.67017 17.5467 3.09091 18.5633 3.83998 19.3133L6.89331 22.38H8.86665C9.58665 22.38 10.28 22.0867 10.8 21.58L14.8266 17.5533C15.2 17.18 15.6933 16.9933 16.1866 16.9933C16.68 16.9933 17.1733 17.18 17.5466 17.5533L21.56 21.5667C22.0666 22.0733 22.76 22.3667 23.4933 22.3667H25.1733L28.1733 19.3533C28.9262 18.5902 29.3461 17.5598 29.3411 16.4878C29.3361 15.4158 28.9066 14.3894 28.1466 13.6333Z" fill="#32BCAD"/>
</svg>
